<mxfile host="app.diagrams.net" modified="2024-02-19T14:35:38.963Z" agent="Mozilla/5.0 (Windows NT 10.0; Win64; x64) AppleWebKit/537.36 (KHTML, like Gecko) Chrome/121.0.0.0 Safari/537.36" etag="lru1rzkwiLWtK_iY0i_M" version="23.1.5" type="device">
  <diagram name="Страница — 1" id="6YyFtAqDGFEc5X8FMjMv">
    <mxGraphModel dx="1235" dy="665" grid="1" gridSize="10" guides="1" tooltips="1" connect="1" arrows="1" fold="1" page="1" pageScale="1" pageWidth="827" pageHeight="1169" math="0" shadow="0">
      <root>
        <mxCell id="0" />
        <mxCell id="1" parent="0" />
        <mxCell id="xsRTPWiNkPI8ClYydaL6-1" value="" style="ellipse;whiteSpace=wrap;html=1;" vertex="1" parent="1">
          <mxGeometry x="190" y="110" width="70" height="70" as="geometry" />
        </mxCell>
        <mxCell id="xsRTPWiNkPI8ClYydaL6-2" value="78" style="text;html=1;align=center;verticalAlign=middle;whiteSpace=wrap;rounded=0;" vertex="1" parent="1">
          <mxGeometry x="195" y="130" width="60" height="30" as="geometry" />
        </mxCell>
        <mxCell id="xsRTPWiNkPI8ClYydaL6-4" value="" style="ellipse;whiteSpace=wrap;html=1;" vertex="1" parent="1">
          <mxGeometry x="360" y="110" width="70" height="70" as="geometry" />
        </mxCell>
        <mxCell id="xsRTPWiNkPI8ClYydaL6-5" value="79" style="text;html=1;align=center;verticalAlign=middle;whiteSpace=wrap;rounded=0;" vertex="1" parent="1">
          <mxGeometry x="365" y="130" width="60" height="30" as="geometry" />
        </mxCell>
        <mxCell id="xsRTPWiNkPI8ClYydaL6-7" value="" style="ellipse;whiteSpace=wrap;html=1;" vertex="1" parent="1">
          <mxGeometry x="360" y="250" width="70" height="70" as="geometry" />
        </mxCell>
        <mxCell id="xsRTPWiNkPI8ClYydaL6-8" value="69" style="text;html=1;align=center;verticalAlign=middle;whiteSpace=wrap;rounded=0;" vertex="1" parent="1">
          <mxGeometry x="365" y="270" width="60" height="30" as="geometry" />
        </mxCell>
        <mxCell id="xsRTPWiNkPI8ClYydaL6-9" value="" style="ellipse;whiteSpace=wrap;html=1;" vertex="1" parent="1">
          <mxGeometry x="530" y="250" width="70" height="70" as="geometry" />
        </mxCell>
        <mxCell id="xsRTPWiNkPI8ClYydaL6-10" value="68" style="text;html=1;align=center;verticalAlign=middle;whiteSpace=wrap;rounded=0;" vertex="1" parent="1">
          <mxGeometry x="535" y="270" width="60" height="30" as="geometry" />
        </mxCell>
        <mxCell id="xsRTPWiNkPI8ClYydaL6-11" value="" style="endArrow=classic;html=1;rounded=0;exitX=1;exitY=0.5;exitDx=0;exitDy=0;entryX=0;entryY=0.5;entryDx=0;entryDy=0;" edge="1" parent="1" source="xsRTPWiNkPI8ClYydaL6-1" target="xsRTPWiNkPI8ClYydaL6-4">
          <mxGeometry width="50" height="50" relative="1" as="geometry">
            <mxPoint x="360" y="320" as="sourcePoint" />
            <mxPoint x="410" y="270" as="targetPoint" />
          </mxGeometry>
        </mxCell>
        <mxCell id="xsRTPWiNkPI8ClYydaL6-12" value="" style="endArrow=classic;html=1;rounded=0;exitX=1;exitY=0.5;exitDx=0;exitDy=0;entryX=0;entryY=0.5;entryDx=0;entryDy=0;" edge="1" parent="1" source="xsRTPWiNkPI8ClYydaL6-7" target="xsRTPWiNkPI8ClYydaL6-9">
          <mxGeometry width="50" height="50" relative="1" as="geometry">
            <mxPoint x="480" y="330" as="sourcePoint" />
            <mxPoint x="470" y="240" as="targetPoint" />
          </mxGeometry>
        </mxCell>
        <mxCell id="xsRTPWiNkPI8ClYydaL6-13" value="" style="ellipse;whiteSpace=wrap;html=1;" vertex="1" parent="1">
          <mxGeometry x="530" y="120" width="70" height="70" as="geometry" />
        </mxCell>
        <mxCell id="xsRTPWiNkPI8ClYydaL6-14" value="20" style="text;html=1;align=center;verticalAlign=middle;whiteSpace=wrap;rounded=0;" vertex="1" parent="1">
          <mxGeometry x="535" y="140" width="60" height="30" as="geometry" />
        </mxCell>
        <mxCell id="xsRTPWiNkPI8ClYydaL6-15" value="" style="endArrow=classic;html=1;rounded=0;exitX=0.5;exitY=1;exitDx=0;exitDy=0;entryX=0.5;entryY=0;entryDx=0;entryDy=0;" edge="1" parent="1" source="xsRTPWiNkPI8ClYydaL6-13" target="xsRTPWiNkPI8ClYydaL6-9">
          <mxGeometry width="50" height="50" relative="1" as="geometry">
            <mxPoint x="360" y="320" as="sourcePoint" />
            <mxPoint x="620" y="230" as="targetPoint" />
          </mxGeometry>
        </mxCell>
        <mxCell id="xsRTPWiNkPI8ClYydaL6-16" value="" style="ellipse;whiteSpace=wrap;html=1;" vertex="1" parent="1">
          <mxGeometry x="40" y="110" width="70" height="70" as="geometry" />
        </mxCell>
        <mxCell id="xsRTPWiNkPI8ClYydaL6-17" value="24" style="text;html=1;align=center;verticalAlign=middle;whiteSpace=wrap;rounded=0;" vertex="1" parent="1">
          <mxGeometry x="45" y="130" width="60" height="30" as="geometry" />
        </mxCell>
        <mxCell id="xsRTPWiNkPI8ClYydaL6-18" value="" style="endArrow=classic;html=1;rounded=0;exitX=1;exitY=0.5;exitDx=0;exitDy=0;entryX=0;entryY=0.5;entryDx=0;entryDy=0;" edge="1" parent="1" source="xsRTPWiNkPI8ClYydaL6-16" target="xsRTPWiNkPI8ClYydaL6-1">
          <mxGeometry width="50" height="50" relative="1" as="geometry">
            <mxPoint x="360" y="320" as="sourcePoint" />
            <mxPoint x="410" y="270" as="targetPoint" />
          </mxGeometry>
        </mxCell>
        <mxCell id="xsRTPWiNkPI8ClYydaL6-19" value="" style="ellipse;whiteSpace=wrap;html=1;" vertex="1" parent="1">
          <mxGeometry x="40" y="250" width="70" height="70" as="geometry" />
        </mxCell>
        <mxCell id="xsRTPWiNkPI8ClYydaL6-20" value="94" style="text;html=1;align=center;verticalAlign=middle;whiteSpace=wrap;rounded=0;" vertex="1" parent="1">
          <mxGeometry x="45" y="270" width="60" height="30" as="geometry" />
        </mxCell>
        <mxCell id="xsRTPWiNkPI8ClYydaL6-21" value="" style="endArrow=classic;html=1;rounded=0;exitX=0.5;exitY=1;exitDx=0;exitDy=0;" edge="1" parent="1" source="xsRTPWiNkPI8ClYydaL6-16" target="xsRTPWiNkPI8ClYydaL6-19">
          <mxGeometry width="50" height="50" relative="1" as="geometry">
            <mxPoint x="360" y="320" as="sourcePoint" />
            <mxPoint x="410" y="270" as="targetPoint" />
          </mxGeometry>
        </mxCell>
        <mxCell id="xsRTPWiNkPI8ClYydaL6-22" value="" style="ellipse;whiteSpace=wrap;html=1;" vertex="1" parent="1">
          <mxGeometry x="360" y="380" width="70" height="70" as="geometry" />
        </mxCell>
        <mxCell id="xsRTPWiNkPI8ClYydaL6-23" value="41" style="text;html=1;align=center;verticalAlign=middle;whiteSpace=wrap;rounded=0;" vertex="1" parent="1">
          <mxGeometry x="365" y="400" width="60" height="30" as="geometry" />
        </mxCell>
        <mxCell id="xsRTPWiNkPI8ClYydaL6-24" value="" style="endArrow=classic;html=1;rounded=0;exitX=0.5;exitY=0;exitDx=0;exitDy=0;entryX=0.5;entryY=1;entryDx=0;entryDy=0;" edge="1" parent="1" source="xsRTPWiNkPI8ClYydaL6-22" target="xsRTPWiNkPI8ClYydaL6-7">
          <mxGeometry width="50" height="50" relative="1" as="geometry">
            <mxPoint x="360" y="320" as="sourcePoint" />
            <mxPoint x="410" y="270" as="targetPoint" />
          </mxGeometry>
        </mxCell>
        <mxCell id="xsRTPWiNkPI8ClYydaL6-25" value="" style="ellipse;whiteSpace=wrap;html=1;" vertex="1" parent="1">
          <mxGeometry x="190" y="380" width="70" height="70" as="geometry" />
        </mxCell>
        <mxCell id="xsRTPWiNkPI8ClYydaL6-26" value="93" style="text;html=1;align=center;verticalAlign=middle;whiteSpace=wrap;rounded=0;" vertex="1" parent="1">
          <mxGeometry x="195" y="400" width="60" height="30" as="geometry" />
        </mxCell>
        <mxCell id="xsRTPWiNkPI8ClYydaL6-27" value="" style="endArrow=classic;html=1;rounded=0;exitX=0;exitY=0.5;exitDx=0;exitDy=0;entryX=1;entryY=0.5;entryDx=0;entryDy=0;" edge="1" parent="1" source="xsRTPWiNkPI8ClYydaL6-22" target="xsRTPWiNkPI8ClYydaL6-25">
          <mxGeometry width="50" height="50" relative="1" as="geometry">
            <mxPoint x="360" y="320" as="sourcePoint" />
            <mxPoint x="410" y="270" as="targetPoint" />
          </mxGeometry>
        </mxCell>
        <mxCell id="xsRTPWiNkPI8ClYydaL6-28" value="" style="endArrow=classic;html=1;rounded=0;entryX=0.5;entryY=1;entryDx=0;entryDy=0;exitX=0.5;exitY=0;exitDx=0;exitDy=0;" edge="1" parent="1" source="xsRTPWiNkPI8ClYydaL6-7" target="xsRTPWiNkPI8ClYydaL6-4">
          <mxGeometry width="50" height="50" relative="1" as="geometry">
            <mxPoint x="360" y="320" as="sourcePoint" />
            <mxPoint x="410" y="270" as="targetPoint" />
          </mxGeometry>
        </mxCell>
        <mxCell id="xsRTPWiNkPI8ClYydaL6-29" value="" style="endArrow=classic;html=1;rounded=0;exitX=0.5;exitY=1;exitDx=0;exitDy=0;entryX=0.5;entryY=0;entryDx=0;entryDy=0;entryPerimeter=0;" edge="1" parent="1" source="xsRTPWiNkPI8ClYydaL6-1" target="xsRTPWiNkPI8ClYydaL6-25">
          <mxGeometry width="50" height="50" relative="1" as="geometry">
            <mxPoint x="360" y="320" as="sourcePoint" />
            <mxPoint x="410" y="270" as="targetPoint" />
          </mxGeometry>
        </mxCell>
        <mxCell id="xsRTPWiNkPI8ClYydaL6-31" value="" style="endArrow=classic;html=1;rounded=0;entryX=0.76;entryY=0.957;entryDx=0;entryDy=0;entryPerimeter=0;exitX=0;exitY=0;exitDx=0;exitDy=0;" edge="1" parent="1" source="xsRTPWiNkPI8ClYydaL6-26" target="xsRTPWiNkPI8ClYydaL6-19">
          <mxGeometry width="50" height="50" relative="1" as="geometry">
            <mxPoint x="360" y="320" as="sourcePoint" />
            <mxPoint x="410" y="270" as="targetPoint" />
          </mxGeometry>
        </mxCell>
        <mxCell id="xsRTPWiNkPI8ClYydaL6-32" value="" style="endArrow=classic;html=1;rounded=0;exitX=1;exitY=0.5;exitDx=0;exitDy=0;entryX=0;entryY=0.5;entryDx=0;entryDy=0;" edge="1" parent="1" source="xsRTPWiNkPI8ClYydaL6-19" target="xsRTPWiNkPI8ClYydaL6-8">
          <mxGeometry width="50" height="50" relative="1" as="geometry">
            <mxPoint x="360" y="320" as="sourcePoint" />
            <mxPoint x="410" y="270" as="targetPoint" />
          </mxGeometry>
        </mxCell>
        <mxCell id="xsRTPWiNkPI8ClYydaL6-33" value="" style="endArrow=classic;html=1;rounded=0;exitX=1;exitY=1;exitDx=0;exitDy=0;entryX=0;entryY=0;entryDx=0;entryDy=0;" edge="1" parent="1" source="xsRTPWiNkPI8ClYydaL6-16" target="xsRTPWiNkPI8ClYydaL6-22">
          <mxGeometry width="50" height="50" relative="1" as="geometry">
            <mxPoint x="510" y="480" as="sourcePoint" />
            <mxPoint x="560" y="430" as="targetPoint" />
          </mxGeometry>
        </mxCell>
        <mxCell id="xsRTPWiNkPI8ClYydaL6-34" value="" style="ellipse;whiteSpace=wrap;html=1;" vertex="1" parent="1">
          <mxGeometry x="45" y="500" width="70" height="70" as="geometry" />
        </mxCell>
        <mxCell id="xsRTPWiNkPI8ClYydaL6-35" value="24" style="text;html=1;align=center;verticalAlign=middle;whiteSpace=wrap;rounded=0;" vertex="1" parent="1">
          <mxGeometry x="50" y="520" width="60" height="30" as="geometry" />
        </mxCell>
        <mxCell id="xsRTPWiNkPI8ClYydaL6-38" value="" style="ellipse;whiteSpace=wrap;html=1;" vertex="1" parent="1">
          <mxGeometry x="195" y="640" width="70" height="70" as="geometry" />
        </mxCell>
        <mxCell id="xsRTPWiNkPI8ClYydaL6-39" value="41" style="text;html=1;align=center;verticalAlign=middle;whiteSpace=wrap;rounded=0;" vertex="1" parent="1">
          <mxGeometry x="200" y="660" width="60" height="30" as="geometry" />
        </mxCell>
        <mxCell id="xsRTPWiNkPI8ClYydaL6-40" value="" style="ellipse;whiteSpace=wrap;html=1;" vertex="1" parent="1">
          <mxGeometry x="195" y="510" width="70" height="70" as="geometry" />
        </mxCell>
        <mxCell id="xsRTPWiNkPI8ClYydaL6-41" value="69" style="text;html=1;align=center;verticalAlign=middle;whiteSpace=wrap;rounded=0;" vertex="1" parent="1">
          <mxGeometry x="200" y="530" width="60" height="30" as="geometry" />
        </mxCell>
        <mxCell id="xsRTPWiNkPI8ClYydaL6-42" value="" style="endArrow=classic;html=1;rounded=0;exitX=1;exitY=1;exitDx=0;exitDy=0;entryX=0;entryY=0;entryDx=0;entryDy=0;" edge="1" parent="1" source="xsRTPWiNkPI8ClYydaL6-34" target="xsRTPWiNkPI8ClYydaL6-39">
          <mxGeometry width="50" height="50" relative="1" as="geometry">
            <mxPoint x="540" y="450" as="sourcePoint" />
            <mxPoint x="590" y="400" as="targetPoint" />
          </mxGeometry>
        </mxCell>
        <mxCell id="xsRTPWiNkPI8ClYydaL6-43" value="" style="endArrow=classic;html=1;rounded=0;exitX=0.5;exitY=0;exitDx=0;exitDy=0;entryX=0.5;entryY=1;entryDx=0;entryDy=0;" edge="1" parent="1" source="xsRTPWiNkPI8ClYydaL6-38" target="xsRTPWiNkPI8ClYydaL6-40">
          <mxGeometry width="50" height="50" relative="1" as="geometry">
            <mxPoint x="540" y="450" as="sourcePoint" />
            <mxPoint x="590" y="400" as="targetPoint" />
          </mxGeometry>
        </mxCell>
        <mxCell id="xsRTPWiNkPI8ClYydaL6-44" value="" style="ellipse;whiteSpace=wrap;html=1;" vertex="1" parent="1">
          <mxGeometry x="425" y="515" width="70" height="70" as="geometry" />
        </mxCell>
        <mxCell id="xsRTPWiNkPI8ClYydaL6-45" value="78" style="text;html=1;align=center;verticalAlign=middle;whiteSpace=wrap;rounded=0;" vertex="1" parent="1">
          <mxGeometry x="430" y="535" width="60" height="30" as="geometry" />
        </mxCell>
        <mxCell id="xsRTPWiNkPI8ClYydaL6-46" value="" style="ellipse;whiteSpace=wrap;html=1;" vertex="1" parent="1">
          <mxGeometry x="570" y="515" width="70" height="70" as="geometry" />
        </mxCell>
        <mxCell id="xsRTPWiNkPI8ClYydaL6-47" value="79" style="text;html=1;align=center;verticalAlign=middle;whiteSpace=wrap;rounded=0;" vertex="1" parent="1">
          <mxGeometry x="575" y="535" width="60" height="30" as="geometry" />
        </mxCell>
        <mxCell id="xsRTPWiNkPI8ClYydaL6-48" value="" style="ellipse;whiteSpace=wrap;html=1;" vertex="1" parent="1">
          <mxGeometry x="570" y="640" width="70" height="70" as="geometry" />
        </mxCell>
        <mxCell id="xsRTPWiNkPI8ClYydaL6-49" value="69" style="text;html=1;align=center;verticalAlign=middle;whiteSpace=wrap;rounded=0;" vertex="1" parent="1">
          <mxGeometry x="575" y="660" width="60" height="30" as="geometry" />
        </mxCell>
        <mxCell id="xsRTPWiNkPI8ClYydaL6-50" value="" style="endArrow=classic;html=1;rounded=0;exitX=1;exitY=0.5;exitDx=0;exitDy=0;entryX=0;entryY=0.5;entryDx=0;entryDy=0;" edge="1" parent="1" source="xsRTPWiNkPI8ClYydaL6-45" target="xsRTPWiNkPI8ClYydaL6-46">
          <mxGeometry width="50" height="50" relative="1" as="geometry">
            <mxPoint x="540" y="450" as="sourcePoint" />
            <mxPoint x="590" y="400" as="targetPoint" />
          </mxGeometry>
        </mxCell>
        <mxCell id="xsRTPWiNkPI8ClYydaL6-51" value="" style="endArrow=classic;html=1;rounded=0;exitX=0.5;exitY=0;exitDx=0;exitDy=0;entryX=0.5;entryY=1;entryDx=0;entryDy=0;" edge="1" parent="1" source="xsRTPWiNkPI8ClYydaL6-48" target="xsRTPWiNkPI8ClYydaL6-46">
          <mxGeometry width="50" height="50" relative="1" as="geometry">
            <mxPoint x="540" y="450" as="sourcePoint" />
            <mxPoint x="590" y="400" as="targetPoint" />
          </mxGeometry>
        </mxCell>
        <mxCell id="xsRTPWiNkPI8ClYydaL6-52" value="" style="endArrow=classic;html=1;rounded=0;exitX=1;exitY=0;exitDx=0;exitDy=0;entryX=0;entryY=0.75;entryDx=0;entryDy=0;" edge="1" parent="1" source="xsRTPWiNkPI8ClYydaL6-19" target="xsRTPWiNkPI8ClYydaL6-14">
          <mxGeometry width="50" height="50" relative="1" as="geometry">
            <mxPoint x="540" y="450" as="sourcePoint" />
            <mxPoint x="590" y="400" as="targetPoint" />
          </mxGeometry>
        </mxCell>
        <mxCell id="xsRTPWiNkPI8ClYydaL6-53" value="" style="ellipse;whiteSpace=wrap;html=1;" vertex="1" parent="1">
          <mxGeometry x="125" y="890" width="70" height="70" as="geometry" />
        </mxCell>
        <mxCell id="xsRTPWiNkPI8ClYydaL6-54" value="93" style="text;html=1;align=center;verticalAlign=middle;whiteSpace=wrap;rounded=0;" vertex="1" parent="1">
          <mxGeometry x="130" y="910" width="60" height="30" as="geometry" />
        </mxCell>
        <mxCell id="xsRTPWiNkPI8ClYydaL6-55" value="" style="ellipse;whiteSpace=wrap;html=1;" vertex="1" parent="1">
          <mxGeometry x="10" y="790" width="70" height="70" as="geometry" />
        </mxCell>
        <mxCell id="xsRTPWiNkPI8ClYydaL6-56" value="94" style="text;html=1;align=center;verticalAlign=middle;whiteSpace=wrap;rounded=0;" vertex="1" parent="1">
          <mxGeometry x="15" y="810" width="60" height="30" as="geometry" />
        </mxCell>
        <mxCell id="xsRTPWiNkPI8ClYydaL6-57" value="" style="ellipse;whiteSpace=wrap;html=1;" vertex="1" parent="1">
          <mxGeometry x="265" y="790" width="70" height="70" as="geometry" />
        </mxCell>
        <mxCell id="xsRTPWiNkPI8ClYydaL6-58" value="20" style="text;html=1;align=center;verticalAlign=middle;whiteSpace=wrap;rounded=0;" vertex="1" parent="1">
          <mxGeometry x="270" y="810" width="60" height="30" as="geometry" />
        </mxCell>
        <mxCell id="xsRTPWiNkPI8ClYydaL6-59" value="" style="ellipse;whiteSpace=wrap;html=1;" vertex="1" parent="1">
          <mxGeometry x="390" y="850" width="70" height="70" as="geometry" />
        </mxCell>
        <mxCell id="xsRTPWiNkPI8ClYydaL6-60" value="68" style="text;html=1;align=center;verticalAlign=middle;whiteSpace=wrap;rounded=0;" vertex="1" parent="1">
          <mxGeometry x="395" y="870" width="60" height="30" as="geometry" />
        </mxCell>
        <mxCell id="xsRTPWiNkPI8ClYydaL6-61" value="" style="endArrow=classic;html=1;rounded=0;exitX=0;exitY=0;exitDx=0;exitDy=0;entryX=1;entryY=1;entryDx=0;entryDy=0;" edge="1" parent="1" source="xsRTPWiNkPI8ClYydaL6-54" target="xsRTPWiNkPI8ClYydaL6-55">
          <mxGeometry width="50" height="50" relative="1" as="geometry">
            <mxPoint x="540" y="730" as="sourcePoint" />
            <mxPoint x="110" y="770" as="targetPoint" />
          </mxGeometry>
        </mxCell>
        <mxCell id="xsRTPWiNkPI8ClYydaL6-62" value="" style="endArrow=classic;html=1;rounded=0;exitX=1;exitY=0.5;exitDx=0;exitDy=0;entryX=0;entryY=0.5;entryDx=0;entryDy=0;" edge="1" parent="1" source="xsRTPWiNkPI8ClYydaL6-55" target="xsRTPWiNkPI8ClYydaL6-58">
          <mxGeometry width="50" height="50" relative="1" as="geometry">
            <mxPoint x="540" y="730" as="sourcePoint" />
            <mxPoint x="590" y="680" as="targetPoint" />
          </mxGeometry>
        </mxCell>
        <mxCell id="xsRTPWiNkPI8ClYydaL6-63" value="" style="endArrow=classic;html=1;rounded=0;exitX=1;exitY=0.75;exitDx=0;exitDy=0;entryX=0;entryY=0;entryDx=0;entryDy=0;" edge="1" parent="1" source="xsRTPWiNkPI8ClYydaL6-58" target="xsRTPWiNkPI8ClYydaL6-60">
          <mxGeometry width="50" height="50" relative="1" as="geometry">
            <mxPoint x="540" y="730" as="sourcePoint" />
            <mxPoint x="590" y="680" as="targetPoint" />
          </mxGeometry>
        </mxCell>
        <mxCell id="xsRTPWiNkPI8ClYydaL6-64" value="" style="ellipse;whiteSpace=wrap;html=1;" vertex="1" parent="1">
          <mxGeometry x="55" y="1040" width="70" height="70" as="geometry" />
        </mxCell>
        <mxCell id="xsRTPWiNkPI8ClYydaL6-65" value="24" style="text;html=1;align=center;verticalAlign=middle;whiteSpace=wrap;rounded=0;" vertex="1" parent="1">
          <mxGeometry x="60" y="1060" width="60" height="30" as="geometry" />
        </mxCell>
        <mxCell id="xsRTPWiNkPI8ClYydaL6-66" value="" style="ellipse;whiteSpace=wrap;html=1;" vertex="1" parent="1">
          <mxGeometry x="55" y="1160" width="70" height="70" as="geometry" />
        </mxCell>
        <mxCell id="xsRTPWiNkPI8ClYydaL6-67" value="94" style="text;html=1;align=center;verticalAlign=middle;whiteSpace=wrap;rounded=0;" vertex="1" parent="1">
          <mxGeometry x="60" y="1180" width="60" height="30" as="geometry" />
        </mxCell>
        <mxCell id="xsRTPWiNkPI8ClYydaL6-68" value="" style="ellipse;whiteSpace=wrap;html=1;" vertex="1" parent="1">
          <mxGeometry x="220" y="1040" width="70" height="70" as="geometry" />
        </mxCell>
        <mxCell id="xsRTPWiNkPI8ClYydaL6-69" value="78" style="text;html=1;align=center;verticalAlign=middle;whiteSpace=wrap;rounded=0;" vertex="1" parent="1">
          <mxGeometry x="225" y="1060" width="60" height="30" as="geometry" />
        </mxCell>
        <mxCell id="xsRTPWiNkPI8ClYydaL6-70" value="" style="endArrow=classic;html=1;rounded=0;exitX=1;exitY=0.5;exitDx=0;exitDy=0;entryX=0;entryY=0.5;entryDx=0;entryDy=0;" edge="1" parent="1" source="xsRTPWiNkPI8ClYydaL6-64" target="xsRTPWiNkPI8ClYydaL6-68">
          <mxGeometry width="50" height="50" relative="1" as="geometry">
            <mxPoint x="540" y="940" as="sourcePoint" />
            <mxPoint x="590" y="890" as="targetPoint" />
          </mxGeometry>
        </mxCell>
        <mxCell id="xsRTPWiNkPI8ClYydaL6-71" value="" style="endArrow=classic;html=1;rounded=0;exitX=0.5;exitY=1;exitDx=0;exitDy=0;entryX=0.5;entryY=0;entryDx=0;entryDy=0;" edge="1" parent="1" source="xsRTPWiNkPI8ClYydaL6-64" target="xsRTPWiNkPI8ClYydaL6-66">
          <mxGeometry width="50" height="50" relative="1" as="geometry">
            <mxPoint x="540" y="940" as="sourcePoint" />
            <mxPoint x="590" y="890" as="targetPoint" />
          </mxGeometry>
        </mxCell>
        <mxCell id="xsRTPWiNkPI8ClYydaL6-72" value="" style="ellipse;whiteSpace=wrap;html=1;" vertex="1" parent="1">
          <mxGeometry x="650" y="900" width="70" height="70" as="geometry" />
        </mxCell>
        <mxCell id="xsRTPWiNkPI8ClYydaL6-73" value="78" style="text;html=1;align=center;verticalAlign=middle;whiteSpace=wrap;rounded=0;" vertex="1" parent="1">
          <mxGeometry x="655" y="920" width="60" height="30" as="geometry" />
        </mxCell>
        <mxCell id="xsRTPWiNkPI8ClYydaL6-74" value="" style="ellipse;whiteSpace=wrap;html=1;" vertex="1" parent="1">
          <mxGeometry x="650" y="1030" width="70" height="70" as="geometry" />
        </mxCell>
        <mxCell id="xsRTPWiNkPI8ClYydaL6-75" value="93" style="text;html=1;align=center;verticalAlign=middle;whiteSpace=wrap;rounded=0;" vertex="1" parent="1">
          <mxGeometry x="655" y="1050" width="60" height="30" as="geometry" />
        </mxCell>
        <mxCell id="xsRTPWiNkPI8ClYydaL6-76" value="" style="ellipse;whiteSpace=wrap;html=1;" vertex="1" parent="1">
          <mxGeometry x="520" y="970" width="70" height="70" as="geometry" />
        </mxCell>
        <mxCell id="xsRTPWiNkPI8ClYydaL6-77" value="94" style="text;html=1;align=center;verticalAlign=middle;whiteSpace=wrap;rounded=0;" vertex="1" parent="1">
          <mxGeometry x="525" y="990" width="60" height="30" as="geometry" />
        </mxCell>
        <mxCell id="xsRTPWiNkPI8ClYydaL6-78" value="" style="endArrow=classic;html=1;rounded=0;exitX=0.5;exitY=1;exitDx=0;exitDy=0;entryX=0.5;entryY=0;entryDx=0;entryDy=0;" edge="1" parent="1" source="xsRTPWiNkPI8ClYydaL6-72" target="xsRTPWiNkPI8ClYydaL6-74">
          <mxGeometry width="50" height="50" relative="1" as="geometry">
            <mxPoint x="540" y="1270" as="sourcePoint" />
            <mxPoint x="590" y="1220" as="targetPoint" />
          </mxGeometry>
        </mxCell>
        <mxCell id="xsRTPWiNkPI8ClYydaL6-79" value="" style="endArrow=classic;html=1;rounded=0;entryX=1;entryY=0.5;entryDx=0;entryDy=0;exitX=0;exitY=0;exitDx=0;exitDy=0;" edge="1" parent="1" source="xsRTPWiNkPI8ClYydaL6-75" target="xsRTPWiNkPI8ClYydaL6-76">
          <mxGeometry width="50" height="50" relative="1" as="geometry">
            <mxPoint x="540" y="1270" as="sourcePoint" />
            <mxPoint x="590" y="1220" as="targetPoint" />
          </mxGeometry>
        </mxCell>
        <mxCell id="xsRTPWiNkPI8ClYydaL6-80" value="" style="ellipse;whiteSpace=wrap;html=1;" vertex="1" parent="1">
          <mxGeometry x="890" y="170" width="70" height="70" as="geometry" />
        </mxCell>
        <mxCell id="xsRTPWiNkPI8ClYydaL6-81" value="20" style="text;html=1;align=center;verticalAlign=middle;whiteSpace=wrap;rounded=0;" vertex="1" parent="1">
          <mxGeometry x="895" y="190" width="60" height="30" as="geometry" />
        </mxCell>
        <mxCell id="xsRTPWiNkPI8ClYydaL6-82" value="" style="ellipse;whiteSpace=wrap;html=1;" vertex="1" parent="1">
          <mxGeometry x="890" y="280" width="70" height="70" as="geometry" />
        </mxCell>
        <mxCell id="xsRTPWiNkPI8ClYydaL6-83" value="68" style="text;html=1;align=center;verticalAlign=middle;whiteSpace=wrap;rounded=0;" vertex="1" parent="1">
          <mxGeometry x="895" y="300" width="60" height="30" as="geometry" />
        </mxCell>
        <mxCell id="xsRTPWiNkPI8ClYydaL6-84" value="" style="ellipse;whiteSpace=wrap;html=1;" vertex="1" parent="1">
          <mxGeometry x="760" y="280" width="70" height="70" as="geometry" />
        </mxCell>
        <mxCell id="xsRTPWiNkPI8ClYydaL6-85" value="69" style="text;html=1;align=center;verticalAlign=middle;whiteSpace=wrap;rounded=0;" vertex="1" parent="1">
          <mxGeometry x="765" y="300" width="60" height="30" as="geometry" />
        </mxCell>
        <mxCell id="xsRTPWiNkPI8ClYydaL6-86" value="" style="endArrow=classic;html=1;rounded=0;exitX=0.5;exitY=1;exitDx=0;exitDy=0;entryX=0.5;entryY=0;entryDx=0;entryDy=0;" edge="1" parent="1" source="xsRTPWiNkPI8ClYydaL6-80" target="xsRTPWiNkPI8ClYydaL6-82">
          <mxGeometry width="50" height="50" relative="1" as="geometry">
            <mxPoint x="540" y="450" as="sourcePoint" />
            <mxPoint x="590" y="400" as="targetPoint" />
          </mxGeometry>
        </mxCell>
        <mxCell id="xsRTPWiNkPI8ClYydaL6-87" value="" style="endArrow=classic;html=1;rounded=0;entryX=0;entryY=0.5;entryDx=0;entryDy=0;exitX=1;exitY=0.5;exitDx=0;exitDy=0;" edge="1" parent="1" source="xsRTPWiNkPI8ClYydaL6-84" target="xsRTPWiNkPI8ClYydaL6-82">
          <mxGeometry width="50" height="50" relative="1" as="geometry">
            <mxPoint x="540" y="450" as="sourcePoint" />
            <mxPoint x="590" y="400" as="targetPoint" />
          </mxGeometry>
        </mxCell>
      </root>
    </mxGraphModel>
  </diagram>
</mxfile>
